# xmcd
#
# Track frame offsets: 
#        150
#        11884
#        21642
#        31462
#        43819
#        54281
#        64956
#        75915
#        85756
#        97480
#        104495
#        115289
#        126891
#        133369
#        138025
#        147014
#        155950
#        177862
#        193114
#        200471
#        210310
#        226344
#        242746
#        261202
#        272359
#        288798
#        295457
#        306881
#        313080
#        323687
#        327209
#
# Disc length: 4503 seconds
#
# Revision: 0
# Processed by: cddbd v1.5.2PL0 Copyright (c) Steve Scherf et al.
# Submitted via: ExactAudioCopy v0.99pb5
#
DISCID=d211951f
DTITLE=Elvis Presley  - FTD 68 - Girls ! Girls ! Girls !  FLAC
DYEAR=1900
DGENRE=
TTITLE0=Girls ! Girls ! Girls !
TTITLE1=I Don't Want to Be Tied
TTITLE2=Where Do You Come From
TTITLE3=I Don't Want To
TTITLE4=We'll Be Together
TTITLE5=A Boy Like Me, A Girl Like You
TTITLE6=Earth Boy
TTITLE7=Return To Sender
TTITLE8=Because Of Love
TTITLE9=Thanks To The Rolling Sea
TTITLE10=Song Of The Shrimp
TTITLE11=The Walls Have Ears
TTITLE12=We're Coming In Loaded
TTITLE13=Mama
TTITLE14=Plantation Rock
TTITLE15=Dainty Little Moonbeams,Girls ! Girls ! Girls ! (End Title Ve
TTITLE15=rsion)
TTITLE16=A Boy Like Me, A Girl Like You (Takes 1-2)
TTITLE17=Mama (Takes 1-4)
TTITLE18=Thanks To The Rolling Sea (Take 3)
TTITLE19=Where Do You Come From (Take 13)
TTITLE20=Earth Boy (Movie Version, Takes 2, 4)
TTITLE21=We'll Be Together (Takes 8, 10)
TTITLE22=Mama (Takes 5-8)
TTITLE23=I Don't Wanna Be Tied (Movie version, Takes 10, 8)
TTITLE24=A Boy Like Me, A Girl Like You (Takes 3-4)
TTITLE25=Thanks To The Rolling Sea (Take 10)
TTITLE26=Plantation Rock (Take 17 and Insert, Unknown Take)
TTITLE27=Mama (Take 9)
TTITLE28=Mama (Sung By The Amigo's, Take 10)
TTITLE29=Mama (Instrumental, Take 3)
TTITLE30=Mama (Overdubbed Album Version)
EXTD=
EXTT0=
EXTT1=
EXTT2=
EXTT3=
EXTT4=
EXTT5=
EXTT6=
EXTT7=
EXTT8=
EXTT9=
EXTT10=
EXTT11=
EXTT12=
EXTT13=
EXTT14=
EXTT15=
EXTT16=
EXTT17=
EXTT18=
EXTT19=
EXTT20=
EXTT21=
EXTT22=
EXTT23=
EXTT24=
EXTT25=
EXTT26=
EXTT27=
EXTT28=
EXTT29=
EXTT30=
PLAYORDER=
